<svg width="62" height="69" viewBox="0 0 62 69" fill="none" xmlns="http://www.w3.org/2000/svg">
<path d="M46.0699 30.1201V17.3398C46.0699 16.9698 45.9 16.6401 45.66 16.3701L31.33 1.31982C31.06 1.03982 30.68 0.879883 30.3 0.879883H7.57996C3.38996 0.879883 0.0400391 4.30023 0.0400391 8.49023V51.4399C0.0400391 55.6299 3.38996 59 7.57996 59H25.51C28.9 64.63 35.07 68.3999 42.09 68.3999C52.76 68.3999 61.47 59.7298 61.47 49.0498C61.48 39.7198 54.7801 31.9199 46.0601 30.1099L46.0699 30.1201ZM31.72 5.83008L41.33 15.9502H35.1C33.24 15.9502 31.72 14.4201 31.72 12.5601V5.83008ZM7.58997 56.2002C4.95997 56.2002 2.85999 54.09 2.85999 51.46V8.50977C2.85999 5.85977 4.95997 3.70996 7.58997 3.70996H28.9V12.5601C28.9 15.9801 31.67 18.77 35.09 18.77H43.25V29.7598C42.83 29.7498 42.49 29.7002 42.12 29.7002C37.21 29.7002 32.69 31.59 29.28 34.54H11.41C10.64 34.54 10 35.1702 10 35.9502C10 36.7302 10.63 37.3599 11.41 37.3599H26.67C25.67 38.7699 24.8399 40.1802 24.1899 41.7202H11.41C10.64 41.7202 10 42.3499 10 43.1299C10 43.9099 10.63 44.54 11.41 44.54H23.27C22.92 45.95 22.74 47.5098 22.74 49.0698C22.74 51.5998 23.23 54.1102 24.12 56.2202H7.57996L7.58997 56.2002ZM42.12 65.6201C33 65.6201 25.58 58.2001 25.58 49.0801C25.58 39.9601 32.98 32.54 42.12 32.54C51.26 32.54 58.66 39.9601 58.66 49.0801C58.66 58.2001 51.24 65.6201 42.12 65.6201Z" fill="#00FFFF"/>
<path d="M11.42 30.3101H25.6801C26.4501 30.3101 27.09 29.6799 27.09 28.8999C27.09 28.1199 26.4601 27.4902 25.6801 27.4902H11.42C10.65 27.4902 10.01 28.1199 10.01 28.8999C10.01 29.6799 10.64 30.3101 11.42 30.3101Z" fill="#00FFFF"/>
<path d="M49.32 48.7798L43.5401 55.0098V39.6401C43.5401 38.8701 42.91 38.23 42.13 38.23C41.35 38.23 40.72 38.8601 40.72 39.6401V55.0098L34.89 48.7798C34.36 48.2198 33.45 48.18 32.89 48.71C32.33 49.24 32.28 50.1299 32.82 50.6899L41.0501 59.54C41.3201 59.82 41.68 59.9902 42.08 59.9902C42.48 59.9902 42.84 59.82 43.11 59.54L51.36 50.6899C51.89 50.1299 51.8701 49.23 51.3001 48.71C50.7201 48.18 49.85 48.2198 49.32 48.7798Z" fill="#00FFFF"/>
</svg>