<svg width="170" height="69" viewBox="0 0 170 69" fill="none" xmlns="http://www.w3.org/2000/svg">
<path d="M156.79 68.4102H13.28C6.02 68.4102 0.130005 62.5102 0.130005 55.2402V13.9199C0.130005 6.65992 6.03 0.77002 13.28 0.77002H156.79C164.06 0.77002 169.94 6.66992 169.94 13.9199V55.2402C169.94 62.5102 164.04 68.4102 156.79 68.4102Z" fill="#DBDBDB"/>
<path d="M37.8 42.3999H23.37C22.54 42.3999 21.72 42.18 21 41.75C20.28 41.32 19.69 40.7099 19.29 39.9799L16.49 34.8901C16.37 34.6701 16.31 34.4301 16.31 34.1801C16.31 33.9301 16.38 33.6902 16.51 33.4702C16.64 33.2602 16.82 33.0799 17.03 32.9599C17.25 32.8399 17.49 32.7698 17.74 32.7798H40.12L41.73 35.7099C42.11 36.3999 42.3 37.1699 42.29 37.9599C42.29 38.7499 42.07 39.5199 41.67 40.1899C41.27 40.8699 40.71 41.4298 40.03 41.8198C39.35 42.2098 38.58 42.4101 37.8 42.4101" fill="#009E9B"/>
<path d="M40.13 32.7798H25.03L21.09 25.6299C20.86 25.2099 20.74 24.7398 20.75 24.2598C20.75 23.7798 20.89 23.3099 21.13 22.8999C21.37 22.4899 21.72 22.1402 22.13 21.9102C22.55 21.6702 23.02 21.5498 23.49 21.5498H32.31C32.8 21.5498 33.28 21.6802 33.71 21.9302C34.13 22.1802 34.48 22.5402 34.72 22.9702L40.13 32.7998V32.7798Z" fill="#75E19F"/>
<path d="M23.54 42.3999H23.37C22.54 42.3999 21.72 42.18 21 41.75C20.28 41.32 19.69 40.7099 19.29 39.9799L16.49 34.8901C16.37 34.6701 16.31 34.4301 16.31 34.1801C16.31 33.9301 16.38 33.6902 16.51 33.4702C16.64 33.2602 16.82 33.0799 17.03 32.9599C17.25 32.8399 17.49 32.7698 17.74 32.7798H25.04L27.05 36.4399C27.39 37.0499 27.56 37.7399 27.55 38.4399C27.55 39.1399 27.35 39.8199 27 40.4199C26.65 41.0199 26.14 41.5201 25.54 41.8701C24.94 42.2201 24.25 42.3999 23.56 42.3999" fill="#006173"/>
<path d="M51.18 23.48H58.84V35.7798C58.84 40.3598 56.55 42.3799 52.78 42.3799H52.64C48.9 42.3799 46.58 40.3898 46.58 35.7798V33.0498H48.68V35.7798C48.68 39.1898 49.87 40.4502 52.64 40.4502H52.78C55.56 40.4502 56.72 39.1898 56.72 35.7798V29.52C56.72 28.76 56.9 27.9998 57.23 27.3198C57.57 26.6398 58.06 26.0401 58.66 25.5801L58.83 25.4502H51.18V23.4902V23.48Z" fill="black"/>
<path d="M74.85 35.6899H64.77V35.8101C64.77 39.1901 66.3 40.48 68.71 40.48H68.85C70.63 40.48 71.96 39.7999 72.56 38.1499H74.63C73.89 41.0499 71.71 42.3901 68.85 42.3901H68.71C65.11 42.3901 62.71 40.3398 62.71 35.8198V34.5098C62.71 29.9598 65.15 27.9399 68.71 27.9399H68.85C72.45 27.9399 74.85 29.9898 74.85 34.5098V35.7002V35.6899ZM68.71 29.8301C66.42 29.8301 64.91 31 64.77 34.02H72.78C72.64 31 71.14 29.8301 68.84 29.8301H68.7H68.71Z" fill="black"/>
<path d="M91.14 35.6899H81.06V35.8101C81.06 39.1901 82.59 40.48 85 40.48H85.14C86.92 40.48 88.26 39.7999 88.85 38.1499H90.92C90.18 41.0499 88 42.3901 85.14 42.3901H85C81.4 42.3901 79 40.3398 79 35.8198V34.5098C79 29.9598 81.43 27.9399 85 27.9399H85.14C88.74 27.9399 91.14 29.9898 91.14 34.5098V35.7002V35.6899ZM84.99 29.8301C82.7 29.8301 81.2 31 81.05 34.02H89.06C88.92 31 87.42 29.8301 85.12 29.8301H84.98H84.99Z" fill="black"/>
<path d="M99.98 40.1899C99.5 40.1899 99.24 39.9601 99.24 39.3901V23.48H91.88V25.4199H99.24L99.07 25.5498C98.47 26.0098 97.99 26.6 97.66 27.27C97.33 27.95 97.15 28.6899 97.15 29.4399V38.6602C97.15 40.7102 98.28 42.1001 100.41 42.1001H105.39V40.1899H99.98Z" fill="black"/>
<path d="M116.54 23.48C120.14 23.48 122.34 25.2201 122.34 29.3101V28.9502C122.34 33.0502 120.13 34.7798 116.54 34.7798H111.82V42.0898H109.71V23.4702H116.54V23.48ZM120.25 29.3198C120.25 26.3598 119.12 25.4502 116.54 25.4502H111.82V32.8301H116.55C119.13 32.8301 120.26 31.92 120.26 28.96V29.3198H120.25Z" fill="black"/>
<path d="M136.48 40.1899H138.94V42.1001H134.64L134.47 39.3101H134.16C133.51 40.7901 131.75 42.3799 129.03 42.3799H128.91C126.98 42.3799 124.89 41.3002 124.89 38.7402V38.5698C124.89 36.1798 126.77 35.1002 129.96 34.7002L134.44 34.1299V33.4102C134.44 31.0502 133.53 29.7998 131.18 29.7998H131.07C128.98 29.7998 127.76 30.79 127.53 33.02H125.36C125.67 29.72 127.79 27.9302 131.16 27.9302H131.21C134.95 27.9302 136.48 29.9498 136.48 33.5098V40.21V40.1899ZM129.35 40.5298C131.67 40.5298 134.45 39.1101 134.45 35.8301V35.77L130.26 36.2798C127.91 36.5598 126.95 37.19 126.95 38.5V38.6699C126.95 39.8399 127.83 40.52 129.24 40.52H129.35V40.5298Z" fill="black"/>
<path d="M151.57 28.21H153.75L147.72 44.2002C146.96 46.2502 145.65 47.6401 143.25 47.6401H140.7V45.6802H144.16C144.89 45.6802 145.2 45.4002 145.43 44.7402L146.51 42.0898H145.55L140.34 28.2002H142.52L146.82 40.1499H147.22L151.58 28.2002L151.57 28.21Z" fill="black"/>
</svg>
