<svg width="171" height="69" viewBox="0 0 171 69" fill="none" xmlns="http://www.w3.org/2000/svg">
<path d="M157.5 68.4102H13.99C6.72999 68.4102 0.840027 62.5102 0.840027 55.2402V13.9199C0.840027 6.65992 6.73999 0.77002 13.99 0.77002H157.5C164.77 0.77002 170.65 6.66992 170.65 13.9199V55.2402C170.65 62.5102 164.75 68.4102 157.5 68.4102Z" fill="url(#paint0_linear_1_4074)"/>
<path d="M147.79 22.23L138.72 56.9102L138.68 56.98H145.77L154.88 22.23H147.79Z" fill="#292929"/>
<path d="M35.41 41.96C34.48 42.45 33.2 42.7402 31.99 42.7402C29.44 42.7402 28 42.3298 27.84 40.2798V40.1401C27.84 40.0601 27.82 39.9701 27.82 39.8901V33.9102L27.84 33.2002V28.9702H27.82V27.1699L27.84 26.46V22.3799L21.52 23.21C25.8 22.38 28.25 18.9999 28.25 15.6299V13.5601H21.15V23.2598L20.74 23.3799V41.3599C20.98 46.4099 24.31 49.4102 29.76 49.4102C31.7 49.4102 33.82 48.9702 35.45 48.2402L35.48 48.2202V41.9199L35.4 41.98L35.41 41.96Z" fill="#292929"/>
<path d="M36.53 20.9199L16.6 23.9902V29.04L36.53 25.9702V20.9199Z" fill="#292929"/>
<path d="M36.53 28.3101L16.6 31.3901V36.21L36.53 33.1401V28.3101Z" fill="#292929"/>
<path d="M58.88 30.6401C58.59 25.0301 55.09 21.7002 49.38 21.7002C46.1 21.7002 43.38 22.9701 41.55 25.3701C39.71 27.7701 38.75 31.2798 38.75 35.5498C38.75 39.8198 39.72 43.35 41.55 45.73C43.39 48.13 46.1 49.3999 49.38 49.3999C55.09 49.3999 58.61 46.0502 58.88 40.4102V48.8701H65.98V22.2798L58.88 23.3701M59.25 35.5498C59.25 40.5298 56.63 43.7402 52.61 43.7402C48.59 43.7402 45.97 40.6798 45.97 35.5498C45.97 30.4198 48.45 27.3101 52.61 27.3101C54.63 27.3101 56.33 28.0898 57.5 29.5898C58.64 31.0698 59.25 33.1198 59.25 35.5498Z" fill="#292929"/>
<path d="M86.69 21.7002C80.96 21.7002 77.46 25.0302 77.19 30.6602V14.5498L70.09 15.6401V48.8799H77.19V40.4199C77.46 46.0599 80.98 49.4102 86.69 49.4102C93.39 49.4102 97.38 44.2301 97.38 35.5601C97.38 26.8901 93.38 21.71 86.69 21.71V21.7002ZM83.46 43.7402C79.42 43.7402 76.82 40.5298 76.82 35.5498C76.82 33.1198 77.43 31.0601 78.57 29.6001C79.74 28.1101 81.44 27.3198 83.46 27.3198C87.62 27.3198 90.1 30.4001 90.1 35.5601C90.1 40.7201 87.62 43.73 83.46 43.73V43.7402Z" fill="#292929"/>
<path d="M116.7 21.7002C110.97 21.7002 107.47 25.0302 107.2 30.6602V14.5498L100.1 15.6401V48.8799H107.2V40.4199C107.47 46.0599 110.99 49.4102 116.7 49.4102C123.4 49.4102 127.39 44.2301 127.39 35.5601C127.39 26.8901 123.4 21.71 116.7 21.71V21.7002ZM113.49 43.7402C109.45 43.7402 106.85 40.5298 106.85 35.5498C106.85 33.1198 107.46 31.0601 108.6 29.6001C109.77 28.1101 111.47 27.3198 113.49 27.3198C117.65 27.3198 120.13 30.4001 120.13 35.5601C120.13 40.7201 117.65 43.73 113.49 43.73V43.7402Z" fill="#292929"/>
<path d="M127.4 22.23H134.98L141.15 48.8398H134.35L127.4 22.23Z" fill="#292929"/>
<defs>
<linearGradient id="paint0_linear_1_4074" x1="0.830027" y1="34.5901" x2="170.65" y2="34.5901" gradientUnits="userSpaceOnUse">
<stop stop-color="#3BFF9D"/>
<stop offset="1" stop-color="#3BFFC8"/>
</linearGradient>
</defs>
</svg>
