<svg width="234" height="104" viewBox="0 0 234 104" fill="none" xmlns="http://www.w3.org/2000/svg">
<path d="M18.62 80.7102H18.8V83.3992H4.68005C2.21005 83.3992 0.550049 81.6762 0.550049 79.1466V74.2168H3.25V79.2363C3.25 80.2322 3.82005 80.7102 4.93005 80.7102H15.91V73.1611H18.61V80.7102H18.62ZM8.25 85.0923H10.95V87.831H8.25V85.0923Z" fill="white"/>
<path d="M18.61 80.7102H24.3101V73.1611H27.01V83.3992H18.61V80.7102ZM20.47 85.0923H23.17V87.831H20.47V85.0923ZM24.3101 85.0923H27.01V87.831H24.3101V85.0923Z" fill="white"/>
<path d="M30.1 85.1819H30.4399C31.7799 85.1819 32.4399 84.5445 32.4399 83.3295V73.1611H35.14V82.8116C35.14 83.1701 35.14 83.4888 35.12 83.7378C35.03 84.7536 34.78 85.5902 34.33 86.2276C33.67 87.104 32.81 87.6319 31.74 87.7613C31.42 87.7812 30.99 87.831 30.47 87.831H30.11V85.1819H30.1Z" fill="white"/>
<path d="M43.15 80.7101V79.0767C43.15 77.9713 42.8801 77.1745 42.3101 76.7065C41.9501 76.3878 41.56 76.1886 41.13 76.0491C40.72 75.9097 40.0399 75.85 39.0699 75.8201V73.1311H39.95C41.4 73.1311 42.63 73.4896 43.65 74.2167C45.13 75.2325 45.87 76.8359 45.87 79.0568V80.7101H46.01V83.399H37.1801V80.7101H43.15Z" fill="white"/>
<path d="M45.87 80.71H51.5699V73.161H54.27V80.71H54.41V83.399H45.88V80.71H45.87ZM47.73 68.7988H50.4301V71.4878H47.73V68.7988ZM51.5601 68.7988H54.26V71.4878H51.5601V68.7988Z" fill="white"/>
<path d="M54.26 80.71H57.6V68.7988H60.3V80.71H60.4399V83.399H54.27V80.71H54.26Z" fill="white"/>
<path d="M60.29 80.71H63.63V68.7988H66.33V83.399H60.29V80.71Z" fill="white"/>
<path d="M78.55 80.7101V79.0767C78.55 77.9713 78.28 77.1745 77.71 76.7065C77.35 76.3878 76.96 76.1886 76.53 76.0491C76.12 75.9097 75.44 75.85 74.47 75.8201V73.1311H75.35C76.8 73.1311 78.03 73.4896 79.05 74.2167C80.52 75.2325 81.27 76.8359 81.27 79.0568V83.399H72.58V80.7101H78.55Z" fill="white"/>
<path d="M83.3101 83.3893V68.7891H86.01V80.7003H86.1899V83.3893H83.3101Z" fill="white"/>
<path d="M85.79 80.7102H95.34V83.3992H85.79V80.7102Z" fill="white"/>
<path d="M94.97 80.7102H98.3101V73.1611H101.01V83.3992H94.97V80.7102ZM98.3101 85.0923H101.01V87.831H98.3101V85.0923Z" fill="white"/>
<path d="M102.5 66.7574L102.95 66.2793C103.18 66.0104 103.45 65.9009 103.7 65.9009C103.84 65.9009 104.18 66.0104 104.67 66.2793C104.78 66.3291 104.9 66.349 104.97 66.349C105.04 66.349 105.13 66.3291 105.24 66.2395L105.63 65.8511L106.31 66.5283L105.81 67.0063C105.54 67.2553 105.29 67.3649 105.08 67.3649C104.94 67.3649 104.63 67.2553 104.13 67.0263C103.99 66.9765 103.9 66.9565 103.81 66.9565C103.7 66.9565 103.56 67.0263 103.38 67.2055L103.18 67.4047L102.5 66.7474V66.7574ZM105.75 83.3892H103.05V68.789H105.75V83.3892Z" fill="white"/>
<path d="M121.15 73.151V80.7001H121.31V83.3891H118.45V76.4475C116.5 77.1048 115.02 79.6842 114.32 83.3891H111.55C112.12 77.1048 115.84 73.4896 121.15 73.151ZM114.59 68.7988H117.34V71.4878H114.59V68.7988ZM118.45 68.7988H121.15V71.4878H118.45V68.7988Z" fill="white"/>
<path d="M120.92 80.7102H130.47V83.3992H120.92V80.7102Z" fill="white"/>
<path d="M133.38 77.9216V73.2706L139.28 68.8687H143.75L136.13 74.5852V75.2226H140.42C142.92 75.2226 144.69 76.9157 144.69 79.3159V80.7201H144.83V83.4091H130.12V80.7201H141.97V79.5847C141.97 78.4793 141.47 77.9315 140.47 77.9315H133.39L133.38 77.9216Z" fill="white"/>
<path d="M144.67 80.7102H148.01V73.1611H150.71V80.7102H150.85V83.3992H144.68V80.7102H144.67ZM148.01 85.0923H150.71V87.831H148.01V85.0923Z" fill="white"/>
<path d="M157.76 80.7101V76.7962H160.46V80.7101H163.55V74.9935H166.25V80.7101H169.27V73.161H171.97V83.3991H150.71V80.7101H157.77H157.76ZM161.6 68.9284H164.3V71.6672H161.6V68.9284ZM163.55 65.114H166.25V67.8528H163.55V65.114ZM165.45 68.9284H168.15V71.6672H165.45V68.9284Z" fill="white"/>
<path d="M183.71 80.7101V79.0767C183.71 77.9713 183.44 77.1745 182.87 76.7065C182.51 76.3878 182.12 76.1886 181.69 76.0491C181.28 75.9097 180.6 75.85 179.62 75.8201V73.1311H180.5C181.95 73.1311 183.18 73.4896 184.2 74.2167C185.67 75.2325 186.42 76.8359 186.42 79.0568V80.7101H186.56V83.399H177.73V80.7101H183.7H183.71Z" fill="white"/>
<path d="M186.2 80.7102H195.75V83.3992H186.2V80.7102Z" fill="white"/>
<path d="M198.68 80.7102V80.282C198.68 79.5848 198.79 78.9474 199.06 78.4495C199.42 77.6328 200.06 77.1149 200.9 76.7962V73.1611H205.96C208.48 73.1611 210.25 74.8343 210.25 77.2544V80.7102H210.39V83.3992H195.39V80.7102H198.68ZM201.4 80.7102H203.1V79.8935C203.1 79.3558 202.81 79.057 202.22 79.057C201.67 79.057 201.4 79.3757 201.4 79.9633V80.7102ZM207.51 80.7102V77.5033C207.51 76.3979 207.03 75.8501 206.03 75.8501H203.6V76.7962C204.67 77.2444 205.12 77.7424 205.44 78.4495C205.69 78.9673 205.8 79.5848 205.8 80.282V80.7102H207.5H207.51Z" fill="white"/>
<path d="M210.25 80.7102H214.99C215.53 80.7102 215.56 80.6404 215.83 80.5707C215.38 79.0768 214.56 77.6527 213.29 76.6169L214.61 73.3802C215.65 73.2408 216.56 73.1511 217.4 73.1511C220.21 73.1511 221.6 74.2168 221.6 76.3381C221.6 77.6726 220.92 79.1167 219.63 80.7002H221.72V83.3892H219.7C218.29 83.3892 218.11 83.3693 217.41 83.0705C216.93 83.3394 216.64 83.3892 215.1 83.3892H210.27V80.7002L210.25 80.7102ZM217.82 78.8279C218.57 77.9714 218.98 77.2941 218.98 76.7962C218.98 76.119 218.39 75.8003 217.16 75.7804L216.25 75.8302C217.36 77.0253 217.66 77.7722 217.81 78.8378L217.82 78.8279Z" fill="white"/>
<path d="M224.92 83.3892H221.56V80.7002H224.92V77.2444C224.92 74.8243 226.65 73.1511 229.19 73.1511H232.53V81.2679C232.53 83.8473 230.85 85.5204 228.26 85.5204H224.92V83.3991V83.3892ZM227.62 82.8115H228.3C229.3 82.8115 229.77 82.2638 229.77 81.1583V75.8501H229.09C228.09 75.8501 227.61 76.3879 227.61 77.5033V82.8115H227.62Z" fill="white"/>
<path d="M3.98999 100.26L3.19995 103.118H0.579956L3.98999 92.0039H7.30005L10.76 103.118H8.04004L7.18005 100.26H3.97998H3.98999ZM6.81995 98.3778L6.12 96.0175C5.92 95.3602 5.72006 94.5335 5.56006 93.8762H5.53003C5.36003 94.5335 5.20002 95.3801 5.02002 96.0175L4.35999 98.3778H6.82996H6.81995Z" fill="#00FFFF"/>
<path d="M12.17 92.1434C12.83 92.0139 14.1701 91.9143 15.4301 91.9143C16.9701 91.9143 17.91 92.0637 18.73 92.5417C19.51 92.9501 20.0699 93.7169 20.0699 94.7228C20.0699 95.7287 19.49 96.635 18.23 97.0931V97.123C19.51 97.4715 20.45 98.4276 20.45 99.8617C20.45 100.868 19.99 101.664 19.29 102.222C18.48 102.869 17.12 103.228 14.9 103.228C13.66 103.228 12.73 103.148 12.17 103.059V92.1434ZM14.67 96.3959H15.5C16.82 96.3959 17.54 95.8482 17.54 95.0315C17.54 94.2149 16.89 93.7468 15.75 93.7468C15.2 93.7468 14.89 93.7767 14.67 93.8165V96.4059V96.3959ZM14.67 101.326C14.92 101.356 15.22 101.356 15.65 101.356C16.79 101.356 17.8 100.907 17.8 99.7522C17.8 98.5969 16.79 98.1886 15.53 98.1886H14.67V101.326Z" fill="#00FFFF"/>
<path d="M24.62 100.26L23.83 103.118H21.21L24.62 92.0039H27.9301L31.39 103.118H28.67L27.8101 100.26H24.61H24.62ZM27.46 98.3778L26.76 96.0175C26.56 95.3602 26.36 94.5335 26.2 93.8762H26.17C26 94.5335 25.84 95.3801 25.66 96.0175L25 98.3778H27.47H27.46Z" fill="#00FFFF"/>
<path d="M32.8 92.1434C33.73 91.994 34.94 91.9143 36.21 91.9143C38.33 91.9143 39.7 92.2928 40.78 93.0995C41.94 93.9559 42.67 95.3303 42.67 97.2923C42.67 99.4235 41.8899 100.888 40.8199 101.794C39.6399 102.77 37.86 103.228 35.67 103.228C34.36 103.228 33.43 103.148 32.8 103.059V92.1434ZM35.34 101.216C35.56 101.266 35.9 101.266 36.22 101.266C38.51 101.286 40 100.031 40 97.3719C40.02 95.0614 38.66 93.8464 36.49 93.8464C35.93 93.8464 35.56 93.8962 35.35 93.946V101.216H35.34Z" fill="#00FFFF"/>
<path d="M47.51 103.108V91.9939H50.46L52.78 96.0672C53.44 97.2424 54.1 98.6267 54.6 99.8816H54.65C54.48 98.4176 54.4301 96.9137 54.4301 95.2306V91.9939H56.75V103.108H54.1L51.72 98.8159C51.06 97.6308 50.33 96.1967 49.78 94.892L49.73 94.9119C49.8 96.3759 49.83 97.9495 49.83 99.7621V103.108H47.51Z" fill="#00FFFF"/>
<path d="M65.49 98.4076H61.38V101.047H65.97V103.108H58.85V91.9939H65.74V94.0554H61.38V96.366H65.49V98.4076Z" fill="#00FFFF"/>
<path d="M69.85 94.1052H66.85V91.9939H75.4301V94.1052H72.38V103.108H69.85V94.1052Z" fill="#00FFFF"/>
<path d="M78.49 103.108L75.84 91.9939H78.54L79.38 96.5651C79.63 97.8997 79.86 99.3338 80.04 100.459H80.0699C80.2499 99.2541 80.52 97.9196 80.8 96.5452L81.74 91.9939H84.42L85.3101 96.6747C85.5601 97.9793 85.74 99.1645 85.91 100.399H85.9399C86.1099 99.1645 86.35 97.8598 86.59 96.5352L87.5 91.9839H90.0699L87.1899 103.098H84.46L83.52 98.3179C83.3 97.1925 83.12 96.1568 82.99 94.892H82.96C82.76 96.1468 82.5801 97.2025 82.3101 98.3179L81.25 103.098H78.48L78.49 103.108Z" fill="#00FFFF"/>
<path d="M101.39 97.4417C101.39 101.087 99.17 103.298 95.91 103.298C92.65 103.298 90.66 100.808 90.66 97.6408C90.66 94.3045 92.8 91.8147 96.09 91.8147C99.38 91.8147 101.39 94.3742 101.39 97.4417ZM93.33 97.5811C93.33 99.7621 94.36 101.296 96.05 101.296C97.74 101.296 98.73 99.6825 98.73 97.5213C98.73 95.5295 97.77 93.8065 96.03 93.8065C94.29 93.8065 93.33 95.4199 93.33 97.5811Z" fill="#00FFFF"/>
<path d="M102.96 92.1434C103.77 92.0139 104.98 91.9143 106.32 91.9143C107.98 91.9143 109.14 92.1633 109.93 92.7907C110.59 93.3186 110.96 94.0954 110.96 95.1212C110.96 96.5354 109.95 97.5114 108.99 97.86V97.9097C109.77 98.2185 110.2 98.9654 110.48 99.9912C110.83 101.246 111.18 102.7 111.39 103.128H108.81C108.63 102.8 108.36 101.903 108.03 100.539C107.73 99.1546 107.25 98.7762 106.22 98.7563H105.46V103.128H102.96V92.1633V92.1434ZM105.46 96.9238H106.45C107.71 96.9238 108.45 96.2964 108.45 95.3204C108.45 94.2946 107.75 93.7866 106.6 93.7667C105.99 93.7667 105.64 93.8165 105.46 93.8464V96.9138V96.9238Z" fill="#00FFFF"/>
<path d="M112.7 91.9939H115.2V96.9137H115.25C115.5 96.4855 115.76 96.0871 116.01 95.6888L118.54 91.9939H121.64L117.95 96.7245L121.84 103.108H118.89L116.16 98.308L115.2 99.4832V103.108H112.7V91.9939Z" fill="#00FFFF"/>
<path d="M125.38 91.9939H132.2V94.0554H127.91V96.595H131.92V98.6367H127.91V103.108H125.38V91.9939Z" fill="#00FFFF"/>
<path d="M144.25 97.4417C144.25 101.087 142.03 103.298 138.77 103.298C135.51 103.298 133.52 100.808 133.52 97.6408C133.52 94.3045 135.66 91.8147 138.95 91.8147C142.24 91.8147 144.25 94.3742 144.25 97.4417ZM136.18 97.5811C136.18 99.7621 137.21 101.296 138.9 101.296C140.59 101.296 141.58 99.6825 141.58 97.5213C141.58 95.5295 140.62 93.8065 138.88 93.8065C137.14 93.8065 136.18 95.4199 136.18 97.5811Z" fill="#00FFFF"/>
<path d="M145.82 92.1434C146.63 92.0139 147.84 91.9143 149.18 91.9143C150.84 91.9143 152 92.1633 152.79 92.7907C153.45 93.3186 153.82 94.0954 153.82 95.1212C153.82 96.5354 152.81 97.5114 151.85 97.86V97.9097C152.63 98.2185 153.06 98.9654 153.34 99.9912C153.69 101.246 154.04 102.7 154.25 103.128H151.67C151.49 102.8 151.22 101.903 150.89 100.539C150.59 99.1546 150.11 98.7762 149.09 98.7563H148.33V103.128H145.83V92.1633L145.82 92.1434ZM148.32 96.9238H149.31C150.57 96.9238 151.31 96.2964 151.31 95.3204C151.31 94.2946 150.61 93.7866 149.46 93.7667C148.85 93.7667 148.5 93.8165 148.32 93.8464V96.9138V96.9238Z" fill="#00FFFF"/>
<path d="M163.9 94.1052H160.9V91.9939H169.48V94.1052H166.43V103.108H163.9V94.1052Z" fill="#00FFFF"/>
<path d="M170.74 92.1434C171.55 92.0139 172.76 91.9143 174.1 91.9143C175.76 91.9143 176.92 92.1633 177.71 92.7907C178.37 93.3186 178.74 94.0954 178.74 95.1212C178.74 96.5354 177.73 97.5114 176.77 97.86V97.9097C177.55 98.2185 177.98 98.9654 178.26 99.9912C178.61 101.246 178.96 102.7 179.17 103.128H176.59C176.41 102.8 176.14 101.903 175.81 100.539C175.51 99.1546 175.03 98.7762 174.01 98.7563H173.25V103.128H170.75V92.1633L170.74 92.1434ZM173.24 96.9238H174.23C175.49 96.9238 176.23 96.2964 176.23 95.3204C176.23 94.2946 175.53 93.7866 174.38 93.7667C173.77 93.7667 173.42 93.8165 173.24 93.8464V96.9138V96.9238Z" fill="#00FFFF"/>
<path d="M183.22 100.26L182.42 103.118H179.8L183.21 92.0039H186.52L189.98 103.118H187.26L186.4 100.26H183.2H183.22ZM186.06 98.3778L185.36 96.0175C185.16 95.3602 184.96 94.5335 184.8 93.8762H184.77C184.6 94.5335 184.44 95.3801 184.26 96.0175L183.6 98.3778H186.07H186.06Z" fill="#00FFFF"/>
<path d="M193.94 91.9939V103.108H191.41V91.9939H193.94Z" fill="#00FFFF"/>
<path d="M196.04 103.108V91.9939H198.99L201.31 96.0672C201.97 97.2424 202.64 98.6267 203.13 99.8816H203.18C203.01 98.4176 202.96 96.9137 202.96 95.2306V91.9939H205.28V103.108H202.63L200.25 98.8159C199.59 97.6308 198.86 96.1967 198.31 94.892L198.26 94.9119C198.33 96.3759 198.36 97.9495 198.36 99.7621V103.108H196.04Z" fill="#00FFFF"/>
<path d="M209.92 91.9939V103.108H207.39V91.9939H209.92Z" fill="#00FFFF"/>
<path d="M212.02 103.108V91.9939H214.97L217.29 96.0672C217.95 97.2424 218.62 98.6267 219.11 99.8816H219.16C218.99 98.4176 218.94 96.9137 218.94 95.2306V91.9939H221.26V103.108H218.61L216.23 98.8159C215.57 97.6308 214.84 96.1967 214.29 94.892L214.24 94.9119C214.31 96.3759 214.34 97.9495 214.34 99.7621V103.108H212.02Z" fill="#00FFFF"/>
<path d="M232.69 102.601C231.91 102.869 230.44 103.228 228.96 103.228C226.92 103.228 225.45 102.72 224.42 101.724C223.39 100.768 222.83 99.314 222.85 97.6807C222.87 93.9859 225.57 91.8745 229.23 91.8745C230.67 91.8745 231.78 92.1534 232.33 92.4223L231.8 94.434C231.19 94.1651 230.43 93.956 229.2 93.956C227.1 93.956 225.51 95.1411 225.51 97.5513C225.51 99.9614 226.95 101.196 229.02 101.196C229.6 101.196 230.06 101.127 230.26 101.027V98.6966H228.54V96.7346H232.7V102.591L232.69 102.601Z" fill="#00FFFF"/>
<path d="M129.5 20.8357H117.26V53.223H129.5V20.8357Z" fill="#00FFFF"/>
<path d="M26 47.5064H15L12.87 53.2529H0.949951C1.46995 51.998 1.52003 52.1076 2.66003 49.3688L14.98 20.8357H26.37L40.72 53.2529H28.35M20.84 29.4404L17.24 39.7183H24.01L20.84 29.4404Z" fill="#00FFFF"/>
<path d="M101.18 47.5064H90.1801L88.05 53.2529H76.13C76.65 51.998 76.7 52.1076 77.84 49.3688L90.16 20.8357H101.55L115.9 53.2529H103.53M96.02 29.4404L92.42 39.7183H99.1899L96.02 29.4404Z" fill="#00FFFF"/>
<path d="M68.3199 36.6408C68.3199 36.6408 76.98 37.2682 76.4 44.4189C75.9 50.6335 72.02 53.3822 63.66 53.3822H42.8V20.8356C45.1 20.8356 47.73 20.8156 51.41 20.8156L63.17 20.8356C71.8 20.4969 75.22 24.381 75.22 28.783C75.22 28.783 75.4699 34.5394 68.3199 36.6408ZM60.34 33.0654C61.94 33.0654 62.9301 32.1293 62.9301 30.6454C62.9301 29.1614 61.99 28.3149 60.28 28.3149H55.03V33.0654H60.34ZM54.99 45.1858H60.79C62.78 45.1858 63.98 44.2297 63.98 42.6163C63.98 41.0029 62.78 40.1066 60.76 40.1066H54.99V45.1858Z" fill="#00FFFF"/>
<path d="M184.7 4.4126H173.26V53.1728H211.25C211.25 53.1728 215.1 52.2367 215.1 48.7609V29.1911H203.18V43.2236H184.66L184.7 4.4126Z" fill="white"/>
<path d="M232.71 9.94995H220.92V53.1729H232.71V9.94995Z" fill="white"/>
<path d="M233.85 0.209944V4.94056C233.85 4.94056 229.24 2.57028 226.81 4.84097C226.45 5.12979 224.97 7.36065 218.09 7.13158V2.73958C218.09 2.73958 222.1 3.42676 224.17 1.69386C226.57 -0.63659 233.66 0.0705169 233.84 0.219905L233.85 0.209944Z" fill="white"/>
<path d="M200.98 64.7355C203.625 64.7355 205.77 62.5997 205.77 59.965C205.77 57.3304 203.625 55.1946 200.98 55.1946C198.335 55.1946 196.19 57.3304 196.19 59.965C196.19 62.5997 198.335 64.7355 200.98 64.7355Z" fill="white"/>
<path d="M132.46 43.5922V53.1829H160.71C163.27 53.1829 165.13 51.0616 165.13 48.5718V36.0332C165.13 27.289 156.28 20.8354 149.22 20.8354H132.46V30.7249H146.77C150.96 30.7249 153.38 34.8879 153.38 37.1586V43.5823H132.45" fill="white"/>
</svg>